<svg width="1440" height="1249" viewBox="0 0 1440 1249" fill="none" xmlns="http://www.w3.org/2000/svg">
<g clip-path="url(#clip0_24_92)">
<rect width="1440" height="1249" fill="#360940"/>
<g opacity="0.2" filter="url(#filter0_f_24_92)">
<path fill-rule="evenodd" clip-rule="evenodd" d="M129.834 1025.74C161.224 1028.05 191.99 984.402 218.589 1000.59C245.109 1016.73 220.183 1060.51 232.541 1088.25C244.411 1114.89 281.884 1126.63 287.441 1155.11C293.454 1185.93 290.228 1226.99 262.972 1244.21C233.835 1262.63 194.367 1225.6 160.917 1235.08C127.408 1244.57 115.072 1296.08 80.1394 1296C47.4096 1295.92 28.5074 1259.31 8.11126 1234.71C-11.542 1211 -32.9171 1186.4 -35.7438 1156.21C-38.5175 1126.59 -18.0945 1101.03 -7.00406 1073.27C4.93985 1043.36 0.551758 997.741 31.896 986.855C65.8028 975.08 93.8865 1023.1 129.834 1025.74Z" fill="white"/>
</g>
<g opacity="0.2" filter="url(#filter1_f_24_92)">
<path fill-rule="evenodd" clip-rule="evenodd" d="M116.116 -64.867C140.012 -63.0202 160.242 -90.666 183.564 -85.1526C207.891 -79.4015 224.643 -57.041 238.112 -36.0265C253.024 -12.7617 271.771 14.2271 264.306 40.8189C256.788 67.5983 220.538 73.0527 201.727 93.5751C183.668 113.277 181.662 147.991 156.868 158.033C132.11 168.059 105.561 150.037 79.802 142.954C53.5543 135.736 24.8776 134.055 4.43377 116.114C-17.307 97.0357 -34.7123 70.2365 -35.9507 41.375C-37.1594 13.2055 -15.8776 -9.69527 -2.0188 -34.2672C10.6293 -56.6925 16.6373 -89.6585 41.6005 -96.1246C68.2195 -103.02 88.6966 -66.9862 116.116 -64.867Z" fill="white"/>
</g>
<g opacity="0.2" filter="url(#filter2_f_24_92)">
<path fill-rule="evenodd" clip-rule="evenodd" d="M1266.12 -32.867C1290.01 -31.0202 1310.24 -58.666 1333.56 -53.1526C1357.89 -47.4015 1374.64 -25.041 1388.11 -4.02652C1403.02 19.2383 1421.77 46.2271 1414.31 72.8189C1406.79 99.5983 1370.54 105.053 1351.73 125.575C1333.67 145.277 1331.66 179.991 1306.87 190.033C1282.11 200.059 1255.56 182.037 1229.8 174.954C1203.55 167.736 1174.88 166.055 1154.43 148.114C1132.69 129.036 1115.29 102.237 1114.05 73.375C1112.84 45.2055 1134.12 22.3047 1147.98 -2.2672C1160.63 -24.6925 1166.64 -57.6585 1191.6 -64.1246C1218.22 -71.0196 1238.7 -34.9862 1266.12 -32.867Z" fill="white"/>
</g>
<g opacity="0.2" filter="url(#filter3_f_24_92)">
<path fill-rule="evenodd" clip-rule="evenodd" d="M1279.83 1057.74C1311.22 1060.05 1341.99 1016.4 1368.59 1032.59C1395.11 1048.73 1370.18 1092.51 1382.54 1120.25C1394.41 1146.89 1431.88 1158.63 1437.44 1187.11C1443.45 1217.93 1440.23 1258.99 1412.97 1276.21C1383.84 1294.63 1344.37 1257.6 1310.92 1267.08C1277.41 1276.57 1265.07 1328.08 1230.14 1328C1197.41 1327.92 1178.51 1291.31 1158.11 1266.71C1138.46 1243 1117.08 1218.4 1114.26 1188.21C1111.48 1158.59 1131.91 1133.03 1143 1105.27C1154.94 1075.36 1150.55 1029.74 1181.9 1018.86C1215.8 1007.08 1243.89 1055.1 1279.83 1057.74Z" fill="white"/>
</g>
<g opacity="0.4" filter="url(#filter4_f_24_92)">
<path fill-rule="evenodd" clip-rule="evenodd" d="M-25.003 428.198C3.15146 425.558 27.8514 449.824 45.7984 471.617C61.216 490.338 56.9408 517.53 66.7986 539.672C76.501 561.464 105.118 576.076 102.875 599.814C100.646 623.411 73.193 635.073 56.2186 651.662C40.7612 666.77 27.7165 684.402 7.76553 692.768C-13.6292 701.74 -37.0795 703.915 -60.0211 700.408C-85.3063 696.544 -110.823 689.203 -129.515 671.787C-149.199 653.446 -165.06 628.54 -165.969 601.691C-166.853 575.583 -148.742 553.489 -134.257 531.724C-121.719 512.885 -104.172 499.713 -87.7351 484.138C-66.9794 464.47 -53.5089 430.871 -25.003 428.198Z" fill="white"/>
</g>
<g opacity="0.4" filter="url(#filter5_f_24_92)">
<path fill-rule="evenodd" clip-rule="evenodd" d="M1325 430.198C1353.15 427.558 1377.85 451.824 1395.8 473.617C1411.22 492.338 1406.94 519.53 1416.8 541.672C1426.5 563.464 1455.12 578.076 1452.88 601.814C1450.65 625.411 1423.19 637.073 1406.22 653.662C1390.76 668.77 1377.72 686.402 1357.77 694.768C1336.37 703.74 1312.92 705.915 1289.98 702.408C1264.69 698.544 1239.18 691.203 1220.49 673.787C1200.8 655.446 1184.94 630.54 1184.03 603.691C1183.15 577.583 1201.26 555.489 1215.74 533.724C1228.28 514.885 1245.83 501.713 1262.26 486.138C1283.02 466.47 1296.49 432.871 1325 430.198Z" fill="white"/>
</g>
<g opacity="0.4" filter="url(#filter6_f_24_92)">
<path fill-rule="evenodd" clip-rule="evenodd" d="M745.997 130.198C774.151 127.558 798.851 151.824 816.798 173.617C832.216 192.338 827.941 219.53 837.799 241.672C847.501 263.464 876.118 278.076 873.875 301.814C871.646 325.411 844.193 337.073 827.219 353.662C811.761 368.77 798.716 386.402 778.766 394.768C757.371 403.74 733.92 405.915 710.979 402.408C685.694 398.544 660.177 391.203 641.485 373.787C621.801 355.446 605.94 330.54 605.031 303.691C604.147 277.583 622.258 255.489 636.743 233.724C649.281 214.885 666.828 201.713 683.265 186.138C704.021 166.47 717.491 132.871 745.997 130.198Z" fill="white"/>
</g>
<g opacity="0.4" filter="url(#filter7_f_24_92)">
<path fill-rule="evenodd" clip-rule="evenodd" d="M535.997 567.198C564.151 564.558 588.851 588.824 606.798 610.617C622.216 629.338 617.941 656.53 627.799 678.672C637.501 700.464 666.118 715.076 663.875 738.814C661.646 762.411 634.193 774.073 617.219 790.662C601.761 805.77 588.716 823.402 568.766 831.768C547.371 840.74 523.92 842.915 500.979 839.408C475.694 835.544 450.177 828.203 431.485 810.787C411.801 792.446 395.94 767.54 395.031 740.691C394.147 714.583 412.258 692.489 426.743 670.724C439.281 651.885 456.828 638.713 473.265 623.138C494.021 603.47 507.491 569.871 535.997 567.198Z" fill="white"/>
</g>
<g opacity="0.4" filter="url(#filter8_f_24_92)">
<path fill-rule="evenodd" clip-rule="evenodd" d="M804.997 975.198C833.151 972.558 857.851 996.824 875.798 1018.62C891.216 1037.34 886.941 1064.53 896.799 1086.67C906.501 1108.46 935.118 1123.08 932.875 1146.81C930.646 1170.41 903.193 1182.07 886.219 1198.66C870.761 1213.77 857.716 1231.4 837.766 1239.77C816.371 1248.74 792.92 1250.91 769.979 1247.41C744.694 1243.54 719.177 1236.2 700.485 1218.79C680.801 1200.45 664.94 1175.54 664.031 1148.69C663.147 1122.58 681.258 1100.49 695.743 1078.72C708.281 1059.88 725.828 1046.71 742.265 1031.14C763.021 1011.47 776.491 977.871 804.997 975.198Z" fill="white"/>
</g>
</g>
<defs>
<filter id="filter0_f_24_92" x="-136" y="885" width="526" height="511" filterUnits="userSpaceOnUse" color-interpolation-filters="sRGB">
<feFlood flood-opacity="0" result="BackgroundImageFix"/>
<feBlend mode="normal" in="SourceGraphic" in2="BackgroundImageFix" result="shape"/>
<feGaussianBlur stdDeviation="50" result="effect1_foregroundBlur_24_92"/>
</filter>
<filter id="filter1_f_24_92" x="-136" y="-197" width="502" height="458" filterUnits="userSpaceOnUse" color-interpolation-filters="sRGB">
<feFlood flood-opacity="0" result="BackgroundImageFix"/>
<feBlend mode="normal" in="SourceGraphic" in2="BackgroundImageFix" result="shape"/>
<feGaussianBlur stdDeviation="50" result="effect1_foregroundBlur_24_92"/>
</filter>
<filter id="filter2_f_24_92" x="1014" y="-165" width="502" height="458" filterUnits="userSpaceOnUse" color-interpolation-filters="sRGB">
<feFlood flood-opacity="0" result="BackgroundImageFix"/>
<feBlend mode="normal" in="SourceGraphic" in2="BackgroundImageFix" result="shape"/>
<feGaussianBlur stdDeviation="50" result="effect1_foregroundBlur_24_92"/>
</filter>
<filter id="filter3_f_24_92" x="1014" y="917" width="526" height="511" filterUnits="userSpaceOnUse" color-interpolation-filters="sRGB">
<feFlood flood-opacity="0" result="BackgroundImageFix"/>
<feBlend mode="normal" in="SourceGraphic" in2="BackgroundImageFix" result="shape"/>
<feGaussianBlur stdDeviation="50" result="effect1_foregroundBlur_24_92"/>
</filter>
<filter id="filter4_f_24_92" x="-266" y="328" width="469" height="474" filterUnits="userSpaceOnUse" color-interpolation-filters="sRGB">
<feFlood flood-opacity="0" result="BackgroundImageFix"/>
<feBlend mode="normal" in="SourceGraphic" in2="BackgroundImageFix" result="shape"/>
<feGaussianBlur stdDeviation="50" result="effect1_foregroundBlur_24_92"/>
</filter>
<filter id="filter5_f_24_92" x="1084" y="330" width="469" height="474" filterUnits="userSpaceOnUse" color-interpolation-filters="sRGB">
<feFlood flood-opacity="0" result="BackgroundImageFix"/>
<feBlend mode="normal" in="SourceGraphic" in2="BackgroundImageFix" result="shape"/>
<feGaussianBlur stdDeviation="50" result="effect1_foregroundBlur_24_92"/>
</filter>
<filter id="filter6_f_24_92" x="505" y="30" width="469" height="474" filterUnits="userSpaceOnUse" color-interpolation-filters="sRGB">
<feFlood flood-opacity="0" result="BackgroundImageFix"/>
<feBlend mode="normal" in="SourceGraphic" in2="BackgroundImageFix" result="shape"/>
<feGaussianBlur stdDeviation="50" result="effect1_foregroundBlur_24_92"/>
</filter>
<filter id="filter7_f_24_92" x="295" y="467" width="469" height="474" filterUnits="userSpaceOnUse" color-interpolation-filters="sRGB">
<feFlood flood-opacity="0" result="BackgroundImageFix"/>
<feBlend mode="normal" in="SourceGraphic" in2="BackgroundImageFix" result="shape"/>
<feGaussianBlur stdDeviation="50" result="effect1_foregroundBlur_24_92"/>
</filter>
<filter id="filter8_f_24_92" x="564" y="875" width="469" height="474" filterUnits="userSpaceOnUse" color-interpolation-filters="sRGB">
<feFlood flood-opacity="0" result="BackgroundImageFix"/>
<feBlend mode="normal" in="SourceGraphic" in2="BackgroundImageFix" result="shape"/>
<feGaussianBlur stdDeviation="50" result="effect1_foregroundBlur_24_92"/>
</filter>
<clipPath id="clip0_24_92">
<rect width="1440" height="1249" fill="white"/>
</clipPath>
</defs>
</svg>
