<svg width="163" height="53" viewBox="0 0 163 53" fill="none" xmlns="http://www.w3.org/2000/svg" preserveAspectRatio="xMinYMid meet">
<path d="M-2.3365e-05 31.7442V0.000152588L9.02398 4.54416V14.7842C12.48 12.4802 16.256 11.3282 20.352 11.3282C25.984 11.3282 30.784 13.3335 34.752 17.3442C38.7626 21.3122 40.768 26.1122 40.768 31.7442C40.768 37.3762 38.7626 42.1975 34.752 46.2082C30.784 50.1762 25.984 52.1602 20.352 52.1602C14.72 52.1602 9.91998 50.1762 5.95198 46.2082C1.98398 42.1975 -2.3365e-05 37.3762 -2.3365e-05 31.7442ZM20.352 43.0722C23.5093 43.0722 26.1973 41.9628 28.416 39.7442C30.6346 37.5255 31.744 34.8588 31.744 31.7442C31.744 28.6295 30.6346 25.9628 28.416 23.7442C26.1973 21.5255 23.5093 20.4162 20.352 20.4162C17.2373 20.4162 14.5706 21.5255 12.352 23.7442C10.1333 25.9628 9.02398 28.6295 9.02398 31.7442C9.02398 34.8588 10.1333 37.5255 12.352 39.7442C14.5706 41.9628 17.2373 43.0722 20.352 43.0722ZM79.618 46.2082C75.65 50.1762 70.85 52.1602 65.218 52.1602C59.586 52.1602 54.7646 50.1762 50.754 46.2082C46.786 42.1975 44.802 37.3762 44.802 31.7442C44.802 26.1122 46.786 21.3122 50.754 17.3442C54.7646 13.3335 59.586 11.3282 65.218 11.3282C70.85 11.3282 75.65 13.3335 79.618 17.3442C83.6286 21.3122 85.634 26.1122 85.634 31.7442C85.634 37.3762 83.6286 42.1975 79.618 46.2082ZM57.218 39.7442C59.4366 41.9628 62.1033 43.0722 65.218 43.0722C68.3326 43.0722 70.9993 41.9628 73.218 39.7442C75.4366 37.5255 76.546 34.8588 76.546 31.7442C76.546 28.5868 75.4366 25.8988 73.218 23.6802C70.9993 21.4615 68.3326 20.3522 65.218 20.3522C62.1033 20.3522 59.4366 21.4615 57.218 23.6802C54.9993 25.8988 53.89 28.5868 53.89 31.7442C53.89 34.8588 54.9993 37.5255 57.218 39.7442ZM118.12 11.3282L108.712 28.7362L121.32 52.1602H111.016L103.528 38.2722L96.0405 52.1602H85.7365L98.4085 28.7362L89.0005 11.3282H99.3045L103.528 19.1362L107.816 11.3282H118.12ZM127.187 17.3442C131.198 13.3335 136.019 11.3282 141.651 11.3282C147.283 11.3282 152.083 13.3335 156.051 17.3442C160.062 21.3122 162.067 26.1122 162.067 31.7442C162.067 32.6828 162.003 33.6002 161.875 34.4962H130.643C131.24 36.9708 132.563 39.0188 134.611 40.6402C136.659 42.2615 139.006 43.0722 141.651 43.0722C144.382 43.0722 146.814 42.1762 148.947 40.3842H160.083C158.419 43.9255 155.923 46.7842 152.595 48.9602C149.31 51.0935 145.662 52.1602 141.651 52.1602C136.019 52.1602 131.198 50.1762 127.187 46.2082C123.219 42.1975 121.235 37.3762 121.235 31.7442C121.235 26.1122 123.219 21.3122 127.187 17.3442ZM131.027 27.7122H152.211C151.4 25.5362 150.035 23.7655 148.115 22.4002C146.195 21.0348 144.04 20.3522 141.651 20.3522C139.262 20.3522 137.086 21.0348 135.123 22.4002C133.203 23.7655 131.838 25.5362 131.027 27.7122Z" fill="white"/>
</svg>
