<svg width="57" height="18" viewBox="0 0 57 18" fill="none" xmlns="http://www.w3.org/2000/svg">
<path d="M0.000343919 16.9199V-7.9155e-05H7.39234C9.16834 -7.9155e-05 10.5443 0.391921 11.5203 1.17592C12.4963 1.94392 12.9843 3.01592 12.9843 4.39192C12.9843 5.41592 12.6883 6.27992 12.0963 6.98392C11.5043 7.68792 10.6963 8.15992 9.67234 8.39992V8.03992C10.4563 8.15192 11.1283 8.39192 11.6883 8.75992C12.2483 9.12792 12.6723 9.59992 12.9603 10.1759C13.2643 10.7519 13.4163 11.4239 13.4163 12.1919C13.4163 13.1839 13.1843 14.0399 12.7203 14.7599C12.2723 15.4639 11.6163 15.9999 10.7523 16.3679C9.88834 16.7359 8.85634 16.9199 7.65634 16.9199H0.000343919ZM2.95234 14.5919H7.27234C7.70434 14.5919 8.08834 14.5599 8.42434 14.4959C8.77634 14.4319 9.07234 14.3359 9.31234 14.2079C9.56834 14.0639 9.77634 13.8879 9.93634 13.6799C10.1123 13.4719 10.2403 13.2319 10.3203 12.9599C10.4003 12.6879 10.4403 12.3839 10.4403 12.0479C10.4403 11.6959 10.4003 11.3839 10.3203 11.1119C10.2403 10.8399 10.1123 10.6079 9.93634 10.4159C9.77634 10.2079 9.56834 10.0399 9.31234 9.91192C9.07234 9.76792 8.77634 9.66392 8.42434 9.59992C8.08834 9.53592 7.70434 9.50392 7.27234 9.50392H2.95234V14.5919ZM2.95234 7.17592H6.86434C7.92034 7.17592 8.70434 6.97592 9.21634 6.57592C9.74434 6.15992 10.0083 5.55192 10.0083 4.75192C10.0083 3.95192 9.74434 3.35192 9.21634 2.95192C8.70434 2.53592 7.92034 2.32792 6.86434 2.32792H2.95234V7.17592ZM21.5878 17.1599C20.3718 17.1599 19.3158 16.9119 18.4198 16.4159C17.5238 15.9199 16.8278 15.2159 16.3318 14.3039C15.8358 13.3759 15.5878 12.2879 15.5878 11.0399C15.5878 9.79192 15.8358 8.71192 16.3318 7.79992C16.8278 6.88792 17.5238 6.18392 18.4198 5.68792C19.3158 5.19192 20.3718 4.94392 21.5878 4.94392C22.8038 4.94392 23.8598 5.19192 24.7558 5.68792C25.6518 6.18392 26.3478 6.88792 26.8438 7.79992C27.3398 8.71192 27.5878 9.79192 27.5878 11.0399C27.5878 12.2879 27.3398 13.3759 26.8438 14.3039C26.3478 15.2159 25.6518 15.9199 24.7558 16.4159C23.8598 16.9119 22.8038 17.1599 21.5878 17.1599ZM21.5878 14.8799C22.4838 14.8799 23.2038 14.5599 23.7478 13.9199C24.2918 13.2639 24.5638 12.3039 24.5638 11.0399C24.5638 9.75992 24.2918 8.80792 23.7478 8.18392C23.2038 7.54392 22.4838 7.22392 21.5878 7.22392C20.6918 7.22392 19.9718 7.54392 19.4278 8.18392C18.8838 8.80792 18.6118 9.75992 18.6118 11.0399C18.6118 12.3039 18.8838 13.2639 19.4278 13.9199C19.9718 14.5599 20.6918 14.8799 21.5878 14.8799ZM28.3599 16.9199L35.3199 7.65592V8.97592L28.5999 -7.9155e-05H32.1759L37.0719 6.74392H36.0879L40.9599 -7.9155e-05H44.5599L37.8399 8.97592V7.65592L44.7759 16.9199H41.1759L36.0399 9.86392H37.0959L31.9839 16.9199H28.3599ZM51.7854 17.1599C50.4574 17.1599 49.3134 16.9119 48.3534 16.4159C47.3934 15.9199 46.6494 15.2159 46.1214 14.3039C45.6094 13.3919 45.3534 12.3119 45.3534 11.0639C45.3534 9.84792 45.6014 8.78392 46.0974 7.87192C46.6094 6.95992 47.3054 6.24792 48.1854 5.73592C49.0814 5.20792 50.0974 4.94392 51.2334 4.94392C52.3534 4.94392 53.3134 5.18392 54.1134 5.66392C54.9134 6.14392 55.5294 6.82392 55.9614 7.70392C56.4094 8.58392 56.6334 9.63192 56.6334 10.8479V11.7359H47.7774V10.0079H54.5214L54.1374 10.3679C54.1374 9.27992 53.8974 8.44792 53.4174 7.87192C52.9374 7.27992 52.2494 6.98392 51.3534 6.98392C50.6814 6.98392 50.1054 7.14392 49.6254 7.46392C49.1614 7.76792 48.8014 8.20792 48.5454 8.78392C48.3054 9.34392 48.1854 10.0159 48.1854 10.7999V10.9679C48.1854 11.8479 48.3214 12.5759 48.5934 13.1519C48.8654 13.7279 49.2734 14.1599 49.8174 14.4479C50.3614 14.7359 51.0334 14.8799 51.8334 14.8799C52.4894 14.8799 53.1454 14.7839 53.8014 14.5919C54.4574 14.3839 55.0574 14.0639 55.6014 13.6319L56.4414 15.6479C55.8814 16.1119 55.1774 16.4799 54.3294 16.7519C53.4814 17.0239 52.6334 17.1599 51.7854 17.1599Z" fill="#331E36"/>
</svg>
