<svg preserveAspectRatio="none" width="100%" height="100%" overflow="visible" style="display: block;" viewBox="0 0 62.705 60.2059" fill="none" xmlns="http://www.w3.org/2000/svg">
<path id="verified" d="M27.8525 34.8721L21.865 28.9046C21.5533 28.5924 21.1742 28.4257 20.7275 28.4046C20.2808 28.383 19.8739 28.556 19.5067 28.9238C19.1517 29.2782 18.9742 29.6713 18.9742 30.103C18.9742 30.5346 19.1517 30.9277 19.5067 31.2821L25.9675 37.7438C26.5064 38.2821 27.1347 38.5513 27.8525 38.5513C28.5703 38.5513 29.1986 38.2821 29.7375 37.7438L43.1983 24.2821C43.5233 23.9577 43.6933 23.5752 43.7083 23.1346C43.7233 22.6946 43.5533 22.291 43.1983 21.9238C42.8311 21.556 42.4347 21.3691 42.0092 21.363C41.5842 21.3563 41.1881 21.5368 40.8208 21.9046L27.8525 34.8721ZM20.25 58.8213L15.865 51.488L7.59583 49.7438C6.93361 49.6199 6.40583 49.2641 6.0125 48.6763C5.61972 48.0891 5.4575 47.4641 5.52583 46.8013L6.31417 38.2821L0.705001 31.8846C0.235001 31.4018 0 30.808 0 30.103C0 29.398 0.235001 28.8041 0.705001 28.3213L6.31417 21.9238L5.52583 13.4046C5.4575 12.7418 5.61972 12.1168 6.0125 11.5296C6.40583 10.9418 6.93361 10.586 7.59583 10.4621L15.865 8.71795L20.25 1.38462C20.6089 0.790731 21.0917 0.379621 21.6983 0.151288C22.3056 -0.0776014 22.9339 -0.0467693 23.5833 0.243786L31.3525 3.52629L39.1217 0.243786C39.7711 -0.0467693 40.3994 -0.0776014 41.0067 0.151288C41.6133 0.379621 42.0961 0.790731 42.455 1.38462L46.84 8.71795L55.1092 10.4621C55.7714 10.586 56.2992 10.9418 56.6925 11.5296C57.0853 12.1168 57.2475 12.7418 57.1792 13.4046L56.3908 21.9238L62 28.3213C62.47 28.8041 62.705 29.398 62.705 30.103C62.705 30.808 62.47 31.4018 62 31.8846L56.3908 38.2821L57.1792 46.8013C57.2475 47.4641 57.0853 48.0891 56.6925 48.6763C56.2992 49.2641 55.7714 49.6199 55.1092 49.7438L46.84 51.488L42.455 58.8213C42.0961 59.4152 41.6133 59.8263 41.0067 60.0546C40.3994 60.2835 39.7711 60.2527 39.1217 59.9621L31.3525 56.6796L23.5833 59.9621C22.9339 60.2527 22.3056 60.2835 21.6983 60.0546C21.0917 59.8263 20.6089 59.4152 20.25 58.8213Z" fill="var(--fill-0, #008000)"/>
</svg>
